<?xml version="1.0" encoding="UTF-8"?>
<!-- Generated by Pixelmator Pro 3.4.3 -->
<svg width="800" height="800" viewBox="0 0 800 800" xmlns="http://www.w3.org/2000/svg">
    <path id="Path" fill="none" stroke="#f8f6eb" stroke-width="50" stroke-linecap="round" d="M 733.333313 733.333313 L 66.666664 733.333313"/>
    <path id="path1" fill="none" stroke="#f8f6eb" stroke-width="50" stroke-linecap="round" d="M 66.666664 366.666656 L 202.098679 258.322693 M 733.333313 366.666656 L 462.470001 149.97699 C 425.946686 120.759644 374.053314 120.759644 337.529999 149.97699 L 311.466003 170.828674"/>
    <path id="path2" fill="none" stroke="#f8f6eb" stroke-width="50" stroke-linecap="round" d="M 516.666687 183.333313 L 516.666687 116.666687 C 516.666687 107.461975 524.130005 100 533.333313 100 L 616.666687 100 C 625.869995 100 633.333313 107.461975 633.333313 116.666687 L 633.333313 283.333313"/>
    <path id="path3" fill="none" stroke="#f8f6eb" stroke-width="50" stroke-linecap="round" d="M 133.333328 733.333313 L 133.333328 316.666656"/>
    <path id="path4" fill="none" stroke="#f8f6eb" stroke-width="50" stroke-linecap="round" d="M 666.666687 316.666656 L 666.666687 450 M 666.666687 733.333313 L 666.666687 583.333313"/>
    <path id="path5" fill="none" stroke="#f8f6eb" stroke-width="50" stroke-linecap="round" stroke-linejoin="round" d="M 500 733.333313 L 500 566.666687 C 500 519.526672 500 495.956665 485.356689 481.309998 C 470.709991 466.666656 447.139984 466.666656 400 466.666656 C 352.860016 466.666656 329.289337 466.666656 314.644653 481.309998 M 300 733.333313 L 300 566.666687"/>
    <path id="path6" fill="none" stroke="#f8f6eb" stroke-width="50" d="M 466.666656 316.666656 C 466.666656 353.486664 436.820007 383.333344 400 383.333344 C 363.179993 383.333344 333.333344 353.486664 333.333344 316.666656 C 333.333344 279.847656 363.179993 250 400 250 C 436.820007 250 466.666656 279.847656 466.666656 316.666656 Z"/>
    <path id="Rectangle" fill="none" stroke="#f8f6eb" stroke-width="50" d="M 854 732 L 1111 732 L 1111 475 L 854 475 Z"/>
</svg>
